<mxfile host="app.diagrams.net" modified="2023-11-29T15:02:00.368Z" agent="Mozilla/5.0 (Windows NT 10.0; Win64; x64) AppleWebKit/537.36 (KHTML, like Gecko) Chrome/119.0.0.0 Safari/537.36" etag="AVPaKAlgPQLRSTeERL6W" version="22.1.4" type="device">
  <diagram name="Page-1" id="9dKf6n-rlG_ZQyuaRuw7">
    <mxGraphModel dx="5500" dy="3020" grid="1" gridSize="10" guides="1" tooltips="1" connect="1" arrows="1" fold="1" page="1" pageScale="1" pageWidth="1100" pageHeight="850" math="0" shadow="0">
      <root>
        <mxCell id="0" />
        <mxCell id="1" parent="0" />
        <mxCell id="SeyAM4CedTkXuWZ7LeCo-25" style="rounded=0;orthogonalLoop=1;jettySize=auto;html=1;exitX=0.5;exitY=0;exitDx=0;exitDy=0;entryX=0.5;entryY=1;entryDx=0;entryDy=0;endArrow=none;endFill=0;" parent="1" source="SeyAM4CedTkXuWZ7LeCo-20" target="SeyAM4CedTkXuWZ7LeCo-21" edge="1">
          <mxGeometry relative="1" as="geometry" />
        </mxCell>
        <mxCell id="SeyAM4CedTkXuWZ7LeCo-26" style="rounded=0;orthogonalLoop=1;jettySize=auto;html=1;exitX=1;exitY=0.5;exitDx=0;exitDy=0;entryX=0;entryY=0.5;entryDx=0;entryDy=0;endArrow=none;endFill=0;" parent="1" source="SeyAM4CedTkXuWZ7LeCo-20" target="SeyAM4CedTkXuWZ7LeCo-22" edge="1">
          <mxGeometry relative="1" as="geometry" />
        </mxCell>
        <mxCell id="SeyAM4CedTkXuWZ7LeCo-28" style="rounded=0;orthogonalLoop=1;jettySize=auto;html=1;exitX=0;exitY=0.5;exitDx=0;exitDy=0;entryX=1;entryY=0.5;entryDx=0;entryDy=0;endArrow=none;endFill=0;" parent="1" source="SeyAM4CedTkXuWZ7LeCo-20" target="SeyAM4CedTkXuWZ7LeCo-23" edge="1">
          <mxGeometry relative="1" as="geometry" />
        </mxCell>
        <mxCell id="SeyAM4CedTkXuWZ7LeCo-20" value="Customer" style="rounded=0;whiteSpace=wrap;html=1;" parent="1" vertex="1">
          <mxGeometry x="1178" y="287" width="120" height="60" as="geometry" />
        </mxCell>
        <mxCell id="SeyAM4CedTkXuWZ7LeCo-21" value="Customer ID" style="ellipse;whiteSpace=wrap;html=1;" parent="1" vertex="1">
          <mxGeometry x="1260" y="140" width="120" height="80" as="geometry" />
        </mxCell>
        <mxCell id="SeyAM4CedTkXuWZ7LeCo-22" value="Name" style="ellipse;whiteSpace=wrap;html=1;" parent="1" vertex="1">
          <mxGeometry x="1408" y="277" width="120" height="80" as="geometry" />
        </mxCell>
        <mxCell id="SeyAM4CedTkXuWZ7LeCo-23" value="Payment Mode" style="ellipse;whiteSpace=wrap;html=1;" parent="1" vertex="1">
          <mxGeometry x="1030" y="101" width="120" height="80" as="geometry" />
        </mxCell>
        <mxCell id="SeyAM4CedTkXuWZ7LeCo-24" value="Mobile Number" style="ellipse;whiteSpace=wrap;html=1;" parent="1" vertex="1">
          <mxGeometry x="1310" y="400" width="120" height="80" as="geometry" />
        </mxCell>
        <mxCell id="SeyAM4CedTkXuWZ7LeCo-27" style="rounded=0;orthogonalLoop=1;jettySize=auto;html=1;exitX=0.75;exitY=1;exitDx=0;exitDy=0;endArrow=none;endFill=0;" parent="1" source="SeyAM4CedTkXuWZ7LeCo-20" edge="1">
          <mxGeometry relative="1" as="geometry">
            <mxPoint x="1370" y="400" as="targetPoint" />
            <Array as="points" />
          </mxGeometry>
        </mxCell>
        <mxCell id="SeyAM4CedTkXuWZ7LeCo-75" style="rounded=0;orthogonalLoop=1;jettySize=auto;html=1;exitX=0.5;exitY=0;exitDx=0;exitDy=0;entryX=0.5;entryY=1;entryDx=0;entryDy=0;endArrow=none;endFill=0;" parent="1" source="SeyAM4CedTkXuWZ7LeCo-81" target="SeyAM4CedTkXuWZ7LeCo-84" edge="1">
          <mxGeometry relative="1" as="geometry" />
        </mxCell>
        <mxCell id="SeyAM4CedTkXuWZ7LeCo-78" style="rounded=0;orthogonalLoop=1;jettySize=auto;html=1;entryX=1;entryY=0.5;entryDx=0;entryDy=0;endArrow=none;endFill=0;exitX=0;exitY=0.5;exitDx=0;exitDy=0;" parent="1" source="SeyAM4CedTkXuWZ7LeCo-81" target="SeyAM4CedTkXuWZ7LeCo-83" edge="1">
          <mxGeometry relative="1" as="geometry" />
        </mxCell>
        <mxCell id="SeyAM4CedTkXuWZ7LeCo-80" style="rounded=0;orthogonalLoop=1;jettySize=auto;html=1;entryX=0;entryY=0.5;entryDx=0;entryDy=0;endArrow=none;endFill=0;exitX=1;exitY=1;exitDx=0;exitDy=0;" parent="1" source="SeyAM4CedTkXuWZ7LeCo-81" target="SeyAM4CedTkXuWZ7LeCo-87" edge="1">
          <mxGeometry relative="1" as="geometry" />
        </mxCell>
        <mxCell id="w1W1a2GvFGSX24_M2RQ9-8" style="rounded=0;orthogonalLoop=1;jettySize=auto;html=1;exitX=1;exitY=0;exitDx=0;exitDy=0;endArrow=none;endFill=0;" parent="1" source="SeyAM4CedTkXuWZ7LeCo-81" target="SeyAM4CedTkXuWZ7LeCo-86" edge="1">
          <mxGeometry relative="1" as="geometry" />
        </mxCell>
        <mxCell id="w1W1a2GvFGSX24_M2RQ9-9" style="rounded=0;orthogonalLoop=1;jettySize=auto;html=1;exitX=0;exitY=0;exitDx=0;exitDy=0;endArrow=none;endFill=0;" parent="1" source="SeyAM4CedTkXuWZ7LeCo-81" target="SeyAM4CedTkXuWZ7LeCo-85" edge="1">
          <mxGeometry relative="1" as="geometry" />
        </mxCell>
        <mxCell id="w1W1a2GvFGSX24_M2RQ9-10" style="rounded=0;orthogonalLoop=1;jettySize=auto;html=1;exitX=0.25;exitY=1;exitDx=0;exitDy=0;entryX=0.5;entryY=0;entryDx=0;entryDy=0;endArrow=none;endFill=0;" parent="1" source="SeyAM4CedTkXuWZ7LeCo-81" target="SeyAM4CedTkXuWZ7LeCo-82" edge="1">
          <mxGeometry relative="1" as="geometry" />
        </mxCell>
        <mxCell id="SeyAM4CedTkXuWZ7LeCo-81" value="Driver" style="rounded=0;whiteSpace=wrap;html=1;" parent="1" vertex="1">
          <mxGeometry x="-550" y="181" width="130" height="60" as="geometry" />
        </mxCell>
        <mxCell id="SeyAM4CedTkXuWZ7LeCo-82" value="Name" style="ellipse;whiteSpace=wrap;html=1;" parent="1" vertex="1">
          <mxGeometry x="-665" y="320" width="120" height="80" as="geometry" />
        </mxCell>
        <mxCell id="SeyAM4CedTkXuWZ7LeCo-83" value="Contact" style="ellipse;whiteSpace=wrap;html=1;" parent="1" vertex="1">
          <mxGeometry x="-780" y="197" width="120" height="80" as="geometry" />
        </mxCell>
        <mxCell id="SeyAM4CedTkXuWZ7LeCo-84" value="Driver ID" style="ellipse;whiteSpace=wrap;html=1;" parent="1" vertex="1">
          <mxGeometry x="-545" y="11" width="120" height="80" as="geometry" />
        </mxCell>
        <mxCell id="SeyAM4CedTkXuWZ7LeCo-85" value="License Numbe" style="ellipse;whiteSpace=wrap;html=1;" parent="1" vertex="1">
          <mxGeometry x="-740" y="60" width="120" height="80" as="geometry" />
        </mxCell>
        <mxCell id="SeyAM4CedTkXuWZ7LeCo-86" value="Sal" style="ellipse;whiteSpace=wrap;html=1;" parent="1" vertex="1">
          <mxGeometry x="-345" y="50" width="120" height="80" as="geometry" />
        </mxCell>
        <mxCell id="SeyAM4CedTkXuWZ7LeCo-87" value="Adhar Number" style="ellipse;whiteSpace=wrap;html=1;" parent="1" vertex="1">
          <mxGeometry x="-340" y="260" width="120" height="80" as="geometry" />
        </mxCell>
        <mxCell id="SeyAM4CedTkXuWZ7LeCo-123" style="rounded=0;orthogonalLoop=1;jettySize=auto;html=1;entryX=1;entryY=0.5;entryDx=0;entryDy=0;endArrow=none;endFill=0;exitX=0.025;exitY=0.204;exitDx=0;exitDy=0;exitPerimeter=0;" parent="1" source="SeyAM4CedTkXuWZ7LeCo-116" target="SeyAM4CedTkXuWZ7LeCo-119" edge="1">
          <mxGeometry relative="1" as="geometry">
            <mxPoint x="750" y="730" as="sourcePoint" />
          </mxGeometry>
        </mxCell>
        <mxCell id="SeyAM4CedTkXuWZ7LeCo-126" style="rounded=0;orthogonalLoop=1;jettySize=auto;html=1;exitX=0.75;exitY=1;exitDx=0;exitDy=0;endArrow=none;endFill=0;" parent="1" source="SeyAM4CedTkXuWZ7LeCo-116" target="SeyAM4CedTkXuWZ7LeCo-121" edge="1">
          <mxGeometry relative="1" as="geometry" />
        </mxCell>
        <mxCell id="SeyAM4CedTkXuWZ7LeCo-178" style="rounded=0;orthogonalLoop=1;jettySize=auto;html=1;exitX=1;exitY=0;exitDx=0;exitDy=0;endArrow=none;endFill=0;entryX=0;entryY=1;entryDx=0;entryDy=0;" parent="1" source="SeyAM4CedTkXuWZ7LeCo-116" target="SeyAM4CedTkXuWZ7LeCo-122" edge="1">
          <mxGeometry relative="1" as="geometry">
            <mxPoint x="901" y="639" as="targetPoint" />
          </mxGeometry>
        </mxCell>
        <mxCell id="SeyAM4CedTkXuWZ7LeCo-179" style="rounded=0;orthogonalLoop=1;jettySize=auto;html=1;entryX=1;entryY=1;entryDx=0;entryDy=0;endArrow=none;endFill=0;exitX=0.154;exitY=-0.006;exitDx=0;exitDy=0;exitPerimeter=0;" parent="1" source="SeyAM4CedTkXuWZ7LeCo-116" target="SeyAM4CedTkXuWZ7LeCo-120" edge="1">
          <mxGeometry relative="1" as="geometry">
            <mxPoint x="780" y="730" as="sourcePoint" />
          </mxGeometry>
        </mxCell>
        <mxCell id="SeyAM4CedTkXuWZ7LeCo-180" style="rounded=0;orthogonalLoop=1;jettySize=auto;html=1;exitX=0;exitY=1;exitDx=0;exitDy=0;entryX=1;entryY=0;entryDx=0;entryDy=0;endArrow=none;endFill=0;" parent="1" source="SeyAM4CedTkXuWZ7LeCo-116" target="SeyAM4CedTkXuWZ7LeCo-118" edge="1">
          <mxGeometry relative="1" as="geometry" />
        </mxCell>
        <mxCell id="SeyAM4CedTkXuWZ7LeCo-181" style="rounded=0;orthogonalLoop=1;jettySize=auto;html=1;exitX=0.5;exitY=1;exitDx=0;exitDy=0;endArrow=none;endFill=0;" parent="1" source="SeyAM4CedTkXuWZ7LeCo-116" target="SeyAM4CedTkXuWZ7LeCo-117" edge="1">
          <mxGeometry relative="1" as="geometry" />
        </mxCell>
        <mxCell id="SeyAM4CedTkXuWZ7LeCo-116" value="Ride" style="rounded=0;whiteSpace=wrap;html=1;" parent="1" vertex="1">
          <mxGeometry x="757" y="720" width="120" height="49" as="geometry" />
        </mxCell>
        <mxCell id="SeyAM4CedTkXuWZ7LeCo-117" value="Rate" style="ellipse;whiteSpace=wrap;html=1;" parent="1" vertex="1">
          <mxGeometry x="780" y="930" width="120" height="80" as="geometry" />
        </mxCell>
        <mxCell id="SeyAM4CedTkXuWZ7LeCo-118" value="Date" style="ellipse;whiteSpace=wrap;html=1;" parent="1" vertex="1">
          <mxGeometry x="660" y="870" width="120" height="80" as="geometry" />
        </mxCell>
        <mxCell id="SeyAM4CedTkXuWZ7LeCo-119" value="Vehicle ID" style="ellipse;whiteSpace=wrap;html=1;" parent="1" vertex="1">
          <mxGeometry x="530" y="580" width="120" height="80" as="geometry" />
        </mxCell>
        <mxCell id="SeyAM4CedTkXuWZ7LeCo-120" value="driver ID" style="ellipse;whiteSpace=wrap;html=1;" parent="1" vertex="1">
          <mxGeometry x="650" y="540" width="120" height="80" as="geometry" />
        </mxCell>
        <mxCell id="SeyAM4CedTkXuWZ7LeCo-121" value="Distance" style="ellipse;whiteSpace=wrap;html=1;" parent="1" vertex="1">
          <mxGeometry x="890" y="880" width="120" height="80" as="geometry" />
        </mxCell>
        <mxCell id="SeyAM4CedTkXuWZ7LeCo-122" value="R_id" style="ellipse;whiteSpace=wrap;html=1;" parent="1" vertex="1">
          <mxGeometry x="921" y="559" width="120" height="80" as="geometry" />
        </mxCell>
        <mxCell id="SeyAM4CedTkXuWZ7LeCo-129" style="rounded=0;orthogonalLoop=1;jettySize=auto;html=1;entryX=0.5;entryY=1;entryDx=0;entryDy=0;endArrow=none;endFill=0;" parent="1" source="SeyAM4CedTkXuWZ7LeCo-133" target="SeyAM4CedTkXuWZ7LeCo-137" edge="1">
          <mxGeometry relative="1" as="geometry" />
        </mxCell>
        <mxCell id="SeyAM4CedTkXuWZ7LeCo-130" style="rounded=0;orthogonalLoop=1;jettySize=auto;html=1;exitX=0.75;exitY=0;exitDx=0;exitDy=0;entryX=0.5;entryY=1;entryDx=0;entryDy=0;endArrow=none;endFill=0;" parent="1" source="SeyAM4CedTkXuWZ7LeCo-133" target="SeyAM4CedTkXuWZ7LeCo-136" edge="1">
          <mxGeometry relative="1" as="geometry" />
        </mxCell>
        <mxCell id="SeyAM4CedTkXuWZ7LeCo-131" style="rounded=0;orthogonalLoop=1;jettySize=auto;html=1;exitX=0.5;exitY=1;exitDx=0;exitDy=0;entryX=0.5;entryY=0;entryDx=0;entryDy=0;endArrow=none;endFill=0;" parent="1" source="SeyAM4CedTkXuWZ7LeCo-133" target="SeyAM4CedTkXuWZ7LeCo-135" edge="1">
          <mxGeometry relative="1" as="geometry" />
        </mxCell>
        <mxCell id="w1W1a2GvFGSX24_M2RQ9-4" style="rounded=0;orthogonalLoop=1;jettySize=auto;html=1;exitX=0;exitY=0.5;exitDx=0;exitDy=0;entryX=1;entryY=0.5;entryDx=0;entryDy=0;endArrow=none;endFill=0;" parent="1" source="SeyAM4CedTkXuWZ7LeCo-133" target="SeyAM4CedTkXuWZ7LeCo-134" edge="1">
          <mxGeometry relative="1" as="geometry" />
        </mxCell>
        <mxCell id="SeyAM4CedTkXuWZ7LeCo-133" value="Review" style="rounded=0;whiteSpace=wrap;html=1;" parent="1" vertex="1">
          <mxGeometry x="-70" y="730" width="120" height="60" as="geometry" />
        </mxCell>
        <mxCell id="SeyAM4CedTkXuWZ7LeCo-134" value="review" style="ellipse;whiteSpace=wrap;html=1;" parent="1" vertex="1">
          <mxGeometry x="-225" y="760" width="120" height="80" as="geometry" />
        </mxCell>
        <mxCell id="SeyAM4CedTkXuWZ7LeCo-135" value="Ride_id" style="ellipse;whiteSpace=wrap;html=1;" parent="1" vertex="1">
          <mxGeometry x="-60" y="830" width="120" height="80" as="geometry" />
        </mxCell>
        <mxCell id="SeyAM4CedTkXuWZ7LeCo-136" value="Driver Rating" style="ellipse;whiteSpace=wrap;html=1;" parent="1" vertex="1">
          <mxGeometry x="16" y="550" width="120" height="80" as="geometry" />
        </mxCell>
        <mxCell id="SeyAM4CedTkXuWZ7LeCo-137" value="Car Rating" style="ellipse;whiteSpace=wrap;html=1;" parent="1" vertex="1">
          <mxGeometry x="-152" y="580" width="120" height="80" as="geometry" />
        </mxCell>
        <mxCell id="SeyAM4CedTkXuWZ7LeCo-138" style="rounded=0;orthogonalLoop=1;jettySize=auto;html=1;endArrow=none;endFill=0;entryX=0.017;entryY=0.338;entryDx=0;entryDy=0;entryPerimeter=0;exitX=1;exitY=0.75;exitDx=0;exitDy=0;" parent="1" source="SeyAM4CedTkXuWZ7LeCo-116" target="SeyAM4CedTkXuWZ7LeCo-145" edge="1">
          <mxGeometry relative="1" as="geometry">
            <mxPoint x="991.347407084229" y="860.0027311987001" as="targetPoint" />
            <mxPoint x="880" y="760" as="sourcePoint" />
          </mxGeometry>
        </mxCell>
        <mxCell id="SeyAM4CedTkXuWZ7LeCo-139" style="rounded=0;orthogonalLoop=1;jettySize=auto;html=1;exitX=0;exitY=1;exitDx=0;exitDy=0;entryX=0.777;entryY=0.06;entryDx=0;entryDy=0;endArrow=none;endFill=0;entryPerimeter=0;" parent="1" source="SeyAM4CedTkXuWZ7LeCo-141" target="SeyAM4CedTkXuWZ7LeCo-146" edge="1">
          <mxGeometry relative="1" as="geometry" />
        </mxCell>
        <mxCell id="_wmn4jAefhBtxoWSMsPJ-1" style="rounded=0;orthogonalLoop=1;jettySize=auto;html=1;exitX=0.5;exitY=0;exitDx=0;exitDy=0;entryX=0.5;entryY=1;entryDx=0;entryDy=0;endArrow=none;endFill=0;" parent="1" source="SeyAM4CedTkXuWZ7LeCo-141" target="SeyAM4CedTkXuWZ7LeCo-142" edge="1">
          <mxGeometry relative="1" as="geometry" />
        </mxCell>
        <mxCell id="SeyAM4CedTkXuWZ7LeCo-141" value="Payment" style="rounded=0;whiteSpace=wrap;html=1;" parent="1" vertex="1">
          <mxGeometry x="-152" y="-488" width="120" height="60" as="geometry" />
        </mxCell>
        <mxCell id="SeyAM4CedTkXuWZ7LeCo-142" value="Customer iD" style="ellipse;whiteSpace=wrap;html=1;" parent="1" vertex="1">
          <mxGeometry x="-152" y="-643" width="120" height="80" as="geometry" />
        </mxCell>
        <mxCell id="SeyAM4CedTkXuWZ7LeCo-143" value="Pid" style="ellipse;whiteSpace=wrap;html=1;" parent="1" vertex="1">
          <mxGeometry x="61" y="-593" width="120" height="80" as="geometry" />
        </mxCell>
        <mxCell id="w1W1a2GvFGSX24_M2RQ9-1" style="rounded=0;orthogonalLoop=1;jettySize=auto;html=1;entryX=0;entryY=0;entryDx=0;entryDy=0;endArrow=none;endFill=0;" parent="1" source="SeyAM4CedTkXuWZ7LeCo-144" target="SeyAM4CedTkXuWZ7LeCo-141" edge="1">
          <mxGeometry relative="1" as="geometry" />
        </mxCell>
        <mxCell id="SeyAM4CedTkXuWZ7LeCo-144" value="Success" style="ellipse;whiteSpace=wrap;html=1;" parent="1" vertex="1">
          <mxGeometry x="-329" y="-568" width="110" height="80" as="geometry" />
        </mxCell>
        <mxCell id="SeyAM4CedTkXuWZ7LeCo-145" value="Amount" style="ellipse;whiteSpace=wrap;html=1;" parent="1" vertex="1">
          <mxGeometry x="930" y="780" width="120" height="80" as="geometry" />
        </mxCell>
        <mxCell id="SeyAM4CedTkXuWZ7LeCo-146" value="Ride_ID&lt;br&gt;Rid" style="ellipse;whiteSpace=wrap;html=1;" parent="1" vertex="1">
          <mxGeometry x="-289" y="-373" width="120" height="80" as="geometry" />
        </mxCell>
        <mxCell id="SeyAM4CedTkXuWZ7LeCo-148" style="rounded=0;orthogonalLoop=1;jettySize=auto;html=1;endArrow=none;endFill=0;" parent="1" source="SeyAM4CedTkXuWZ7LeCo-141" target="SeyAM4CedTkXuWZ7LeCo-143" edge="1">
          <mxGeometry relative="1" as="geometry" />
        </mxCell>
        <mxCell id="SeyAM4CedTkXuWZ7LeCo-158" style="rounded=0;orthogonalLoop=1;jettySize=auto;html=1;endArrow=none;endFill=0;exitX=0;exitY=0;exitDx=0;exitDy=0;" parent="1" source="SeyAM4CedTkXuWZ7LeCo-163" target="SeyAM4CedTkXuWZ7LeCo-169" edge="1">
          <mxGeometry relative="1" as="geometry">
            <mxPoint x="350" y="10" as="sourcePoint" />
          </mxGeometry>
        </mxCell>
        <mxCell id="SeyAM4CedTkXuWZ7LeCo-159" style="rounded=0;orthogonalLoop=1;jettySize=auto;html=1;exitX=0.5;exitY=0;exitDx=0;exitDy=0;entryX=0.5;entryY=1;entryDx=0;entryDy=0;endArrow=none;endFill=0;" parent="1" source="SeyAM4CedTkXuWZ7LeCo-163" target="SeyAM4CedTkXuWZ7LeCo-164" edge="1">
          <mxGeometry relative="1" as="geometry" />
        </mxCell>
        <mxCell id="SeyAM4CedTkXuWZ7LeCo-160" style="rounded=0;orthogonalLoop=1;jettySize=auto;html=1;entryX=0;entryY=1;entryDx=0;entryDy=0;endArrow=none;endFill=0;" parent="1" target="SeyAM4CedTkXuWZ7LeCo-165" edge="1">
          <mxGeometry relative="1" as="geometry">
            <mxPoint x="470" y="10" as="sourcePoint" />
          </mxGeometry>
        </mxCell>
        <mxCell id="SeyAM4CedTkXuWZ7LeCo-162" style="rounded=0;orthogonalLoop=1;jettySize=auto;html=1;entryX=1;entryY=0;entryDx=0;entryDy=0;endArrow=none;endFill=0;" parent="1" source="SeyAM4CedTkXuWZ7LeCo-163" target="SeyAM4CedTkXuWZ7LeCo-168" edge="1">
          <mxGeometry relative="1" as="geometry" />
        </mxCell>
        <mxCell id="SeyAM4CedTkXuWZ7LeCo-172" style="rounded=0;orthogonalLoop=1;jettySize=auto;html=1;exitX=1;exitY=1;exitDx=0;exitDy=0;entryX=0;entryY=0;entryDx=0;entryDy=0;endArrow=none;endFill=0;" parent="1" source="SeyAM4CedTkXuWZ7LeCo-163" target="SeyAM4CedTkXuWZ7LeCo-166" edge="1">
          <mxGeometry relative="1" as="geometry" />
        </mxCell>
        <mxCell id="SeyAM4CedTkXuWZ7LeCo-163" value="Car" style="rounded=0;whiteSpace=wrap;html=1;" parent="1" vertex="1">
          <mxGeometry x="390" y="11" width="120" height="60" as="geometry" />
        </mxCell>
        <mxCell id="SeyAM4CedTkXuWZ7LeCo-164" value="Vehicle Number" style="ellipse;whiteSpace=wrap;html=1;" parent="1" vertex="1">
          <mxGeometry x="436" y="-160" width="120" height="80" as="geometry" />
        </mxCell>
        <mxCell id="SeyAM4CedTkXuWZ7LeCo-165" value="Availabilty" style="ellipse;whiteSpace=wrap;html=1;" parent="1" vertex="1">
          <mxGeometry x="556" y="-100" width="120" height="80" as="geometry" />
        </mxCell>
        <mxCell id="SeyAM4CedTkXuWZ7LeCo-166" value="Average" style="ellipse;whiteSpace=wrap;html=1;" parent="1" vertex="1">
          <mxGeometry x="245" y="-150" width="120" height="70" as="geometry" />
        </mxCell>
        <mxCell id="SeyAM4CedTkXuWZ7LeCo-167" value="Car name" style="ellipse;whiteSpace=wrap;html=1;" parent="1" vertex="1">
          <mxGeometry x="355" y="161" width="120" height="80" as="geometry" />
        </mxCell>
        <mxCell id="SeyAM4CedTkXuWZ7LeCo-168" value="Car type" style="ellipse;whiteSpace=wrap;html=1;" parent="1" vertex="1">
          <mxGeometry x="230" y="110" width="120" height="80" as="geometry" />
        </mxCell>
        <mxCell id="SeyAM4CedTkXuWZ7LeCo-169" value="Rate per km" style="ellipse;whiteSpace=wrap;html=1;" parent="1" vertex="1">
          <mxGeometry x="160" y="-69" width="120" height="80" as="geometry" />
        </mxCell>
        <mxCell id="SeyAM4CedTkXuWZ7LeCo-170" style="rounded=0;orthogonalLoop=1;jettySize=auto;html=1;entryX=0.5;entryY=0;entryDx=0;entryDy=0;endArrow=none;endFill=0;" parent="1" source="SeyAM4CedTkXuWZ7LeCo-163" target="SeyAM4CedTkXuWZ7LeCo-167" edge="1">
          <mxGeometry relative="1" as="geometry">
            <mxPoint x="410" y="171" as="targetPoint" />
          </mxGeometry>
        </mxCell>
        <mxCell id="SeyAM4CedTkXuWZ7LeCo-175" style="edgeStyle=orthogonalEdgeStyle;rounded=0;orthogonalLoop=1;jettySize=auto;html=1;exitX=0.5;exitY=1;exitDx=0;exitDy=0;" parent="1" source="SeyAM4CedTkXuWZ7LeCo-118" target="SeyAM4CedTkXuWZ7LeCo-118" edge="1">
          <mxGeometry relative="1" as="geometry" />
        </mxCell>
        <mxCell id="KxxDQ-xhK6vw9lx1mXtB-1" value="Drives" style="rhombus;whiteSpace=wrap;html=1;" parent="1" vertex="1">
          <mxGeometry x="81" y="117" width="80" height="80" as="geometry" />
        </mxCell>
        <mxCell id="KxxDQ-xhK6vw9lx1mXtB-2" value="has a" style="rhombus;whiteSpace=wrap;html=1;" parent="1" vertex="1">
          <mxGeometry x="760" y="325" width="73" height="70" as="geometry" />
        </mxCell>
        <mxCell id="KxxDQ-xhK6vw9lx1mXtB-18" value="has a" style="rhombus;whiteSpace=wrap;html=1;" parent="1" vertex="1">
          <mxGeometry x="1140" y="714" width="70" height="66" as="geometry" />
        </mxCell>
        <mxCell id="KxxDQ-xhK6vw9lx1mXtB-21" value="has a" style="rhombus;whiteSpace=wrap;html=1;" parent="1" vertex="1">
          <mxGeometry x="330" y="720" width="80" height="80" as="geometry" />
        </mxCell>
        <mxCell id="4Q_a0q70LZtWTjqzKjCD-9" value="" style="endArrow=none;html=1;rounded=0;entryX=0;entryY=0.5;entryDx=0;entryDy=0;exitX=1;exitY=0.546;exitDx=0;exitDy=0;exitPerimeter=0;" parent="1" source="SeyAM4CedTkXuWZ7LeCo-116" target="KxxDQ-xhK6vw9lx1mXtB-18" edge="1">
          <mxGeometry width="50" height="50" relative="1" as="geometry">
            <mxPoint x="880" y="747" as="sourcePoint" />
            <mxPoint x="870" y="780" as="targetPoint" />
            <Array as="points" />
          </mxGeometry>
        </mxCell>
        <mxCell id="4Q_a0q70LZtWTjqzKjCD-10" value="Passengers" style="ellipse;whiteSpace=wrap;html=1;" parent="1" vertex="1">
          <mxGeometry x="570" y="780" width="120" height="80" as="geometry" />
        </mxCell>
        <mxCell id="4Q_a0q70LZtWTjqzKjCD-11" value="" style="endArrow=none;html=1;rounded=0;exitX=0.961;exitY=0.301;exitDx=0;exitDy=0;exitPerimeter=0;entryX=0;entryY=1;entryDx=0;entryDy=0;" parent="1" source="4Q_a0q70LZtWTjqzKjCD-10" target="SeyAM4CedTkXuWZ7LeCo-116" edge="1">
          <mxGeometry width="50" height="50" relative="1" as="geometry">
            <mxPoint x="820" y="830" as="sourcePoint" />
            <mxPoint x="870" y="780" as="targetPoint" />
          </mxGeometry>
        </mxCell>
        <mxCell id="4Q_a0q70LZtWTjqzKjCD-13" value="" style="endArrow=none;html=1;rounded=0;entryX=0;entryY=0.5;entryDx=0;entryDy=0;exitX=1;exitY=0.5;exitDx=0;exitDy=0;" parent="1" source="SeyAM4CedTkXuWZ7LeCo-133" target="KxxDQ-xhK6vw9lx1mXtB-21" edge="1">
          <mxGeometry width="50" height="50" relative="1" as="geometry">
            <mxPoint x="310" y="830" as="sourcePoint" />
            <mxPoint x="360" y="780" as="targetPoint" />
          </mxGeometry>
        </mxCell>
        <mxCell id="4Q_a0q70LZtWTjqzKjCD-14" value="" style="endArrow=none;html=1;rounded=0;entryX=0.5;entryY=1;entryDx=0;entryDy=0;exitX=0.325;exitY=0;exitDx=0;exitDy=0;exitPerimeter=0;" parent="1" source="SeyAM4CedTkXuWZ7LeCo-116" edge="1">
          <mxGeometry width="50" height="50" relative="1" as="geometry">
            <mxPoint x="789.9999999999998" y="710.6880000000001" as="sourcePoint" />
            <mxPoint x="796.78" y="395.0000000000002" as="targetPoint" />
          </mxGeometry>
        </mxCell>
        <mxCell id="4Q_a0q70LZtWTjqzKjCD-15" value="" style="endArrow=none;html=1;rounded=0;exitX=1;exitY=0.5;exitDx=0;exitDy=0;entryX=-0.002;entryY=0.816;entryDx=0;entryDy=0;entryPerimeter=0;" parent="1" source="KxxDQ-xhK6vw9lx1mXtB-21" target="SeyAM4CedTkXuWZ7LeCo-116" edge="1">
          <mxGeometry width="50" height="50" relative="1" as="geometry">
            <mxPoint x="530" y="710" as="sourcePoint" />
            <mxPoint x="580" y="660" as="targetPoint" />
          </mxGeometry>
        </mxCell>
        <mxCell id="4Q_a0q70LZtWTjqzKjCD-16" value="" style="endArrow=none;html=1;rounded=0;entryX=0.5;entryY=1;entryDx=0;entryDy=0;exitX=0.5;exitY=0;exitDx=0;exitDy=0;" parent="1" source="KxxDQ-xhK6vw9lx1mXtB-18" target="SeyAM4CedTkXuWZ7LeCo-20" edge="1">
          <mxGeometry width="50" height="50" relative="1" as="geometry">
            <mxPoint x="1120" y="580" as="sourcePoint" />
            <mxPoint x="1170" y="530" as="targetPoint" />
            <Array as="points">
              <mxPoint x="1170" y="490" />
              <mxPoint x="1238" y="490" />
            </Array>
          </mxGeometry>
        </mxCell>
        <mxCell id="4Q_a0q70LZtWTjqzKjCD-17" value="" style="endArrow=none;html=1;rounded=0;entryX=1;entryY=0.5;entryDx=0;entryDy=0;exitX=0.5;exitY=0;exitDx=0;exitDy=0;" parent="1" source="KxxDQ-xhK6vw9lx1mXtB-2" target="SeyAM4CedTkXuWZ7LeCo-141" edge="1">
          <mxGeometry width="50" height="50" relative="1" as="geometry">
            <mxPoint x="300" y="-100" as="sourcePoint" />
            <mxPoint x="350" y="-150" as="targetPoint" />
            <Array as="points">
              <mxPoint x="796" y="-458" />
            </Array>
          </mxGeometry>
        </mxCell>
        <mxCell id="4Q_a0q70LZtWTjqzKjCD-18" value="" style="endArrow=none;html=1;rounded=0;exitX=0;exitY=0.5;exitDx=0;exitDy=0;entryX=1;entryY=0.5;entryDx=0;entryDy=0;" parent="1" source="SeyAM4CedTkXuWZ7LeCo-20" target="KxxDQ-xhK6vw9lx1mXtB-2" edge="1">
          <mxGeometry width="50" height="50" relative="1" as="geometry">
            <mxPoint x="550" y="160" as="sourcePoint" />
            <mxPoint x="600" y="110" as="targetPoint" />
            <Array as="points">
              <mxPoint x="940" y="320" />
              <mxPoint x="940" y="360" />
            </Array>
          </mxGeometry>
        </mxCell>
        <mxCell id="4Q_a0q70LZtWTjqzKjCD-20" value="" style="endArrow=none;html=1;rounded=0;entryX=0.5;entryY=1;entryDx=0;entryDy=0;exitX=1;exitY=0.75;exitDx=0;exitDy=0;" parent="1" source="SeyAM4CedTkXuWZ7LeCo-81" target="KxxDQ-xhK6vw9lx1mXtB-1" edge="1">
          <mxGeometry width="50" height="50" relative="1" as="geometry">
            <mxPoint x="-60" y="160" as="sourcePoint" />
            <mxPoint x="-10" y="110" as="targetPoint" />
            <Array as="points">
              <mxPoint x="121" y="226" />
            </Array>
          </mxGeometry>
        </mxCell>
        <mxCell id="4Q_a0q70LZtWTjqzKjCD-21" value="" style="endArrow=none;html=1;rounded=0;entryX=0;entryY=0.5;entryDx=0;entryDy=0;exitX=0.5;exitY=0;exitDx=0;exitDy=0;" parent="1" source="KxxDQ-xhK6vw9lx1mXtB-1" target="SeyAM4CedTkXuWZ7LeCo-163" edge="1">
          <mxGeometry width="50" height="50" relative="1" as="geometry">
            <mxPoint x="50" y="240" as="sourcePoint" />
            <mxPoint x="2516" y="-427" as="targetPoint" />
            <Array as="points">
              <mxPoint x="120" y="40" />
            </Array>
          </mxGeometry>
        </mxCell>
        <mxCell id="4Q_a0q70LZtWTjqzKjCD-22" value="Receives" style="rhombus;whiteSpace=wrap;html=1;" parent="1" vertex="1">
          <mxGeometry x="-140" y="-120" width="80" height="80" as="geometry" />
        </mxCell>
        <mxCell id="4Q_a0q70LZtWTjqzKjCD-23" value="" style="endArrow=none;html=1;rounded=0;entryX=0.5;entryY=1;entryDx=0;entryDy=0;exitX=1;exitY=0.411;exitDx=0;exitDy=0;exitPerimeter=0;" parent="1" source="SeyAM4CedTkXuWZ7LeCo-81" target="4Q_a0q70LZtWTjqzKjCD-22" edge="1">
          <mxGeometry width="50" height="50" relative="1" as="geometry">
            <mxPoint x="-20" y="-40" as="sourcePoint" />
            <mxPoint x="30" y="-90" as="targetPoint" />
            <Array as="points">
              <mxPoint x="-100" y="204" />
            </Array>
          </mxGeometry>
        </mxCell>
        <mxCell id="4Q_a0q70LZtWTjqzKjCD-26" value="" style="endArrow=none;html=1;rounded=0;entryX=0.436;entryY=1.012;entryDx=0;entryDy=0;exitX=0.5;exitY=0;exitDx=0;exitDy=0;entryPerimeter=0;" parent="1" source="4Q_a0q70LZtWTjqzKjCD-22" target="SeyAM4CedTkXuWZ7LeCo-141" edge="1">
          <mxGeometry width="50" height="50" relative="1" as="geometry">
            <mxPoint x="380" y="-140" as="sourcePoint" />
            <mxPoint x="430" y="-190" as="targetPoint" />
          </mxGeometry>
        </mxCell>
        <mxCell id="jdzWxfZBhpexYeZGHrkO-1" value="Amount" style="ellipse;whiteSpace=wrap;html=1;" vertex="1" parent="1">
          <mxGeometry x="-430" y="-460" width="120" height="80" as="geometry" />
        </mxCell>
      </root>
    </mxGraphModel>
  </diagram>
</mxfile>
